<?xml version="1.0" encoding="UTF-8" standalone="no"?>
<svg
   xmlns:dc="http://purl.org/dc/elements/1.1/"
   xmlns:cc="http://creativecommons.org/ns#"
   xmlns:rdf="http://www.w3.org/1999/02/22-rdf-syntax-ns#"
   xmlns:svg="http://www.w3.org/2000/svg"
   xmlns="http://www.w3.org/2000/svg"
   xmlns:sodipodi="http://sodipodi.sourceforge.net/DTD/sodipodi-0.dtd"
   xmlns:inkscape="http://www.inkscape.org/namespaces/inkscape"
   enable-background="new 0 0 32 32"
   height="32px"
   id="Layer_1"
   version="1.0"
   viewBox="0 0 32 32"
   width="32px"
   xml:space="preserve"
   inkscape:version="0.91 r13725"
   sodipodi:docname="home.svg"
   inkscape:export-filename="./home.png"
   inkscape:export-xdpi="180"
   inkscape:export-ydpi="180"><metadata
     id="metadata25"><rdf:RDF><cc:Work
         rdf:about=""><dc:format>image/svg+xml</dc:format><dc:type
           rdf:resource="http://purl.org/dc/dcmitype/StillImage" /></cc:Work></rdf:RDF></metadata><defs
     id="defs23" /><sodipodi:namedview
     pagecolor="#ffffff"
     bordercolor="#666666"
     borderopacity="1"
     objecttolerance="10"
     gridtolerance="10"
     guidetolerance="10"
     inkscape:pageopacity="0"
     inkscape:pageshadow="2"
     inkscape:window-width="1366"
     inkscape:window-height="703"
     id="namedview21"
     showgrid="false"
     inkscape:zoom="7.375"
     inkscape:cx="-12.503623"
     inkscape:cy="15.345445"
     inkscape:window-x="0"
     inkscape:window-y="0"
     inkscape:window-maximized="1"
     inkscape:current-layer="Layer_1" /><g
     id="g9" /><g
     id="g11" /><g
     id="g13" /><g
     id="g15" /><g
     id="g17" /><g
     id="g19" /><path
     style="opacity:1;fill:#9400d3;fill-opacity:1;fill-rule:nonzero;stroke:none;stroke-width:2;stroke-miterlimit:4;stroke-dasharray:none;stroke-opacity:1"
     d="M 15.998047 1.0898438 A 10.00132 10.034365 0 0 0 6.0019531 11.050781 L 6 11.050781 L 6.0019531 11.058594 A 10.00132 10.034365 0 0 0 6 11.099609 L 6.015625 11.099609 C 6.0594859 11.250864 10.633674 26.995454 16 31.050781 C 21.686836 26.924498 25.953967 11.218351 25.988281 11.091797 L 26.001953 11.091797 A 10.00132 10.034365 0 0 0 26 11.050781 A 10.00132 10.034365 0 0 0 15.998047 1.0898438 z M 15.984375 5.6601562 A 5 5.0000076 0 0 1 21 10.630859 A 5 5.0000076 0 0 1 16.044922 15.660156 L 15.988281 15.660156 A 5 5.0000076 0 0 1 11 10.662109 A 5 5.0000076 0 0 1 15.984375 5.6601562 z "
     id="path3344" /></svg>