<?xml version="1.0" encoding="UTF-8" standalone="no"?>
<svg
   xmlns:dc="http://purl.org/dc/elements/1.1/"
   xmlns:cc="http://creativecommons.org/ns#"
   xmlns:rdf="http://www.w3.org/1999/02/22-rdf-syntax-ns#"
   xmlns:svg="http://www.w3.org/2000/svg"
   xmlns="http://www.w3.org/2000/svg"
   xmlns:sodipodi="http://sodipodi.sourceforge.net/DTD/sodipodi-0.dtd"
   xmlns:inkscape="http://www.inkscape.org/namespaces/inkscape"
   enable-background="new 0 0 32 32"
   height="32px"
   id="Layer_1"
   version="1.0"
   viewBox="0 0 32 32"
   width="32px"
   xml:space="preserve"
   inkscape:version="0.91 r13725"
   sodipodi:docname="linkedin.svg"
   inkscape:export-filename="./linkedin.png"
   inkscape:export-xdpi="180"
   inkscape:export-ydpi="180"><metadata
     id="metadata25"><rdf:RDF><cc:Work
         rdf:about=""><dc:format>image/svg+xml</dc:format><dc:type
           rdf:resource="http://purl.org/dc/dcmitype/StillImage" /></cc:Work></rdf:RDF></metadata><defs
     id="defs23" /><sodipodi:namedview
     pagecolor="#ffffff"
     bordercolor="#666666"
     borderopacity="1"
     objecttolerance="10"
     gridtolerance="10"
     guidetolerance="10"
     inkscape:pageopacity="0"
     inkscape:pageshadow="2"
     inkscape:window-width="1366"
     inkscape:window-height="703"
     id="namedview21"
     showgrid="false"
     inkscape:zoom="8"
     inkscape:cx="12.9284"
     inkscape:cy="10.910404"
     inkscape:window-x="0"
     inkscape:window-y="0"
     inkscape:window-maximized="1"
     inkscape:current-layer="Layer_1" /><path
     style="clip-rule:evenodd;fill:#9400d3;fill-rule:evenodd;fill-opacity:1"
     d="M 16 0 A 16 16 0 0 0 0 16 A 16 16 0 0 0 16 32 A 16 16 0 0 0 32 16 A 16 16 0 0 0 16 0 z M 16.023438 2.4179688 A 13.5 13.5 0 0 1 29.523438 15.917969 A 13.5 13.5 0 0 1 16.023438 29.417969 A 13.5 13.5 0 0 1 2.5234375 15.917969 A 13.5 13.5 0 0 1 16.023438 2.4179688 z "
     id="circle5" /><g
     id="g9" /><g
     id="g11" /><g
     id="g13" /><g
     id="g15" /><g
     id="g17" /><g
     id="g19" /><g
     transform="translate(0.773305,-0.5508475)"
     id="g7"
     style="fill:#9402d3;fill-opacity:1"><rect
       style="fill:#9402d3;fill-opacity:1"
       id="rect9"
       y="11"
       x="7"
       width="4"
       height="14" /><path
       style="fill:#9402d3;fill-opacity:1"
       inkscape:connector-curvature="0"
       id="path11"
       d="M 20.499,11 C 17.708,11 17.228,12.018 17,13 l 0,-2 -4,0 0,14 4,0 0,-8 c 0,-1.297 0.703,-2 2,-2 1.266,0 2,0.688 2,2 l 0,8 4,0 0,-7 c 0,-4 -0.521,-7 -4.501,-7 z" /><circle
       style="fill:#9402d3;fill-opacity:1"
       id="circle13"
       r="2"
       cy="8"
       cx="9" /></g></svg>