<?xml version="1.0" encoding="UTF-8" standalone="no"?>
<svg
   xmlns:dc="http://purl.org/dc/elements/1.1/"
   xmlns:cc="http://creativecommons.org/ns#"
   xmlns:rdf="http://www.w3.org/1999/02/22-rdf-syntax-ns#"
   xmlns:svg="http://www.w3.org/2000/svg"
   xmlns="http://www.w3.org/2000/svg"
   xmlns:sodipodi="http://sodipodi.sourceforge.net/DTD/sodipodi-0.dtd"
   xmlns:inkscape="http://www.inkscape.org/namespaces/inkscape"
   enable-background="new 0 0 32 32"
   height="32px"
   id="Layer_1"
   version="1.0"
   viewBox="0 0 32 32"
   width="32px"
   xml:space="preserve"
   inkscape:version="0.91 r13725"
   sodipodi:docname="gplus.svg"
   inkscape:export-filename="/home/kariminf/Test/Icons/jsVCard/gplus.png"
   inkscape:export-xdpi="180"
   inkscape:export-ydpi="180"><metadata
     id="metadata25"><rdf:RDF><cc:Work
         rdf:about=""><dc:format>image/svg+xml</dc:format><dc:type
           rdf:resource="http://purl.org/dc/dcmitype/StillImage" /></cc:Work></rdf:RDF></metadata><defs
     id="defs23" /><sodipodi:namedview
     pagecolor="#ffffff"
     bordercolor="#666666"
     borderopacity="1"
     objecttolerance="10"
     gridtolerance="10"
     guidetolerance="10"
     inkscape:pageopacity="0"
     inkscape:pageshadow="2"
     inkscape:window-width="1366"
     inkscape:window-height="703"
     id="namedview21"
     showgrid="false"
     inkscape:zoom="7.375"
     inkscape:cx="-18.370707"
     inkscape:cy="16.182116"
     inkscape:window-x="0"
     inkscape:window-y="0"
     inkscape:window-maximized="1"
     inkscape:current-layer="Layer_1" /><circle
     style="clip-rule:evenodd;fill:#9400d3;fill-rule:evenodd;fill-opacity:1"
     id="circle5"
     r="16"
     cy="16"
     cx="16" /><circle
     style="clip-rule:evenodd;fill:#ffffff;fill-opacity:1;fill-rule:evenodd"
     id="circle5-3"
     cy="15.918326"
     cx="16.022514"
     r="13.5" /><g
     id="g9" /><g
     id="g11" /><g
     id="g13" /><g
     id="g15" /><g
     id="g17" /><g
     id="g19" /><g
     transform="translate(0.34745774,-0.27018646)"
     id="g7"
     style="fill:#9400d3;fill-opacity:1"><path
       style="fill:#9400d3;fill-opacity:1"
       inkscape:connector-curvature="0"
       id="path9"
       d="m 19,5.998 c 0,0 -4.592,0 -6.164,0 -2.82,0 -5.475,1.979 -5.475,4.453 0,2.528 1.922,4.494 4.791,4.494 0.2,0 0.394,-0.045 0.584,-0.059 -0.188,0.355 -0.318,0.737 -0.318,1.154 0,0.703 0.377,1.264 0.854,1.729 -0.358,0 -0.709,0.005 -1.09,0.005 C 8.689,17.775 6,19.998 6,22.305 6,24.577 8.948,26 12.441,26 c 3.983,0 6.183,-2.262 6.183,-4.534 0,-1.821 -0.538,-2.913 -2.199,-4.091 -0.569,-0.401 -1.656,-1.38 -1.656,-1.956 0,-0.674 0.192,-1.006 1.208,-1.8 1.039,-0.812 1.776,-1.781 1.776,-3.111 0,-1.581 -0.68,-3.51 -2.003,-3.51 l 2.25,0 1,-1 z m -2.069,15.074 c 0.048,0.212 0.077,0.429 0.077,0.649 0,1.836 -1.185,3.271 -4.58,3.271 -2.415,0 -4.158,-1.528 -4.158,-3.364 0,-1.799 2.163,-3.298 4.579,-3.271 0.562,0.006 1.088,0.097 1.564,0.249 1.311,0.913 2.251,1.428 2.518,2.466 z M 13.063,14.223 C 11.442,14.176 9.901,12.41 9.622,10.283 9.343,8.153 10.43,6.524 12.05,6.572 c 1.62,0.05 3.162,1.758 3.441,3.886 0.28,2.128 -0.807,3.813 -2.428,3.765 z" /><polygon
       style="fill:#9400d3;fill-opacity:1"
       id="polygon11"
       points="27,15.991 27,13.991 24,13.991 24,10.991 22,10.991 22,13.991 19,13.991 19,15.991 22,15.991 22,18.991 24,18.991 24,15.991 " /></g></svg>