<?xml version="1.0" encoding="UTF-8" standalone="no"?>
<svg
   xmlns:dc="http://purl.org/dc/elements/1.1/"
   xmlns:cc="http://creativecommons.org/ns#"
   xmlns:rdf="http://www.w3.org/1999/02/22-rdf-syntax-ns#"
   xmlns:svg="http://www.w3.org/2000/svg"
   xmlns="http://www.w3.org/2000/svg"
   xmlns:sodipodi="http://sodipodi.sourceforge.net/DTD/sodipodi-0.dtd"
   xmlns:inkscape="http://www.inkscape.org/namespaces/inkscape"
   enable-background="new 0 0 32 32"
   height="32px"
   id="Layer_1"
   version="1.0"
   viewBox="0 0 32 32"
   width="32px"
   xml:space="preserve"
   inkscape:version="0.91 r13725"
   sodipodi:docname="317749 - social social media tweet twitter.svg"><metadata
     id="metadata25"><rdf:RDF><cc:Work
         rdf:about=""><dc:format>image/svg+xml</dc:format><dc:type
           rdf:resource="http://purl.org/dc/dcmitype/StillImage" /></cc:Work></rdf:RDF></metadata><defs
     id="defs23" /><sodipodi:namedview
     pagecolor="#ffffff"
     bordercolor="#666666"
     borderopacity="1"
     objecttolerance="10"
     gridtolerance="10"
     guidetolerance="10"
     inkscape:pageopacity="0"
     inkscape:pageshadow="2"
     inkscape:window-width="1366"
     inkscape:window-height="703"
     id="namedview21"
     showgrid="false"
     inkscape:zoom="7.375"
     inkscape:cx="2.1716659"
     inkscape:cy="16.182116"
     inkscape:window-x="0"
     inkscape:window-y="0"
     inkscape:window-maximized="1"
     inkscape:current-layer="Layer_1" /><circle
     style="clip-rule:evenodd;fill:#9400d3;fill-rule:evenodd;fill-opacity:1"
     id="circle5"
     r="16"
     cy="16"
     cx="16" /><circle
     style="clip-rule:evenodd;fill:#ffffff;fill-opacity:1;fill-rule:evenodd"
     id="circle5-3"
     cy="15.918326"
     cx="16.022514"
     r="13.5" /><path
     style="fill:#9400d3;fill-opacity:1"
     inkscape:connector-curvature="0"
     id="path7"
     d="m 26.013,9.896 c -0.737,0.323 -1.527,0.538 -2.359,0.636 0.85,-0.498 1.5,-1.289 1.807,-2.232 -0.793,0.462 -1.672,0.798 -2.608,0.979 -0.748,-0.784 -1.816,-1.275 -2.996,-1.275 -2.269,0 -4.105,1.807 -4.105,4.039 0,0.315 0.036,0.625 0.104,0.923 -3.412,-0.172 -6.436,-1.78 -8.461,-4.222 -0.354,0.597 -0.559,1.29 -0.559,2.031 0,1.4 0.728,2.636 1.828,3.363 -0.672,-0.023 -1.306,-0.204 -1.858,-0.507 -0.001,0.017 -0.001,0.033 -0.001,0.051 0,1.958 1.415,3.591 3.293,3.963 -0.343,0.09 -0.706,0.141 -1.082,0.141 -0.264,0 -0.52,-0.024 -0.771,-0.071 0.521,1.603 2.038,2.771 3.834,2.806 -1.402,1.082 -3.174,1.73 -5.099,1.73 -0.33,0 -0.659,-0.019 -0.979,-0.058 1.816,1.146 3.976,1.814 6.295,1.814 7.552,0 11.682,-6.156 11.682,-11.495 0,-0.173 -0.006,-0.351 -0.014,-0.521 0.802,-0.574 1.498,-1.285 2.049,-2.095 z" /><g
     id="g9" /><g
     id="g11" /><g
     id="g13" /><g
     id="g15" /><g
     id="g17" /><g
     id="g19" /></svg>